<mxfile host="www.draw.io" modified="2020-02-21T20:22:21.988Z" agent="Mozilla/5.0 (Windows NT 10.0; WOW64) AppleWebKit/537.36 (KHTML, like Gecko) Chrome/79.0.3945.130 Safari/537.36" etag="AsEJ4AspiMVANmna1mWv" version="12.7.3" type="github">
  <diagram id="n1v0oAVv6jMbZSYqNm_m" name="Page-1">
    <mxGraphModel dx="868" dy="450" grid="1" gridSize="10" guides="1" tooltips="1" connect="1" arrows="1" fold="1" page="1" pageScale="1" pageWidth="827" pageHeight="1169" math="0" shadow="0">
      <root>
        <mxCell id="0" />
        <mxCell id="1" parent="0" />
        <mxCell id="A3e4bDKovQ3FwY1yr9e8-1" value="" style="edgeStyle=orthogonalEdgeStyle;rounded=0;orthogonalLoop=1;jettySize=auto;html=1;" edge="1" parent="1" source="A3e4bDKovQ3FwY1yr9e8-2" target="A3e4bDKovQ3FwY1yr9e8-10">
          <mxGeometry relative="1" as="geometry" />
        </mxCell>
        <mxCell id="A3e4bDKovQ3FwY1yr9e8-2" value="Extracción de datos cuando AUDITADA = 3" style="html=1;whiteSpace=wrap;fontSize=11;spacing=0;strokeColor=#474747;fillOpacity=0;rounded=1;absoluteArcSize=1;arcSize=36;fillColor=#000000;strokeWidth=1.7999999999999998;verticalAlign=bottom;" vertex="1" parent="1">
          <mxGeometry x="48" y="400" width="384" height="132" as="geometry" />
        </mxCell>
        <mxCell id="A3e4bDKovQ3FwY1yr9e8-3" value="Cliente" style="html=1;whiteSpace=wrap;shape=mxgraph.aws3.management_console;labelPosition=center;verticalLabelPosition=bottom;align=center;verticalAlign=top;fontSize=11;spacing=5;strokeOpacity=100;fillColor=#d2d3d3;strokeWidth=1.2;" vertex="1" parent="1">
          <mxGeometry x="343" y="82" width="72" height="84" as="geometry" />
        </mxCell>
        <mxCell id="A3e4bDKovQ3FwY1yr9e8-4" value="SAPS" style="html=1;whiteSpace=wrap;shape=mxgraph.aws3.generic_database;labelPosition=center;verticalLabelPosition=bottom;align=center;verticalAlign=top;fontSize=11;spacing=5;strokeOpacity=100;fillColor=#7D7C7C;strokeWidth=1.2;" vertex="1" parent="1">
          <mxGeometry x="181" y="82" width="70" height="85" as="geometry" />
        </mxCell>
        <mxCell id="A3e4bDKovQ3FwY1yr9e8-5" value="AUDITORIAHUB" style="html=1;whiteSpace=wrap;shape=mxgraph.aws3.table;labelPosition=center;verticalLabelPosition=bottom;align=center;verticalAlign=top;fontSize=11;spacing=5;strokeOpacity=100;fillColor=#2e73b8;strokeWidth=1.2;" vertex="1" parent="1">
          <mxGeometry x="96" y="408" width="72" height="82" as="geometry" />
        </mxCell>
        <mxCell id="A3e4bDKovQ3FwY1yr9e8-6" value="SAPS.BARRIO" style="html=1;whiteSpace=wrap;shape=mxgraph.aws3.table;labelPosition=center;verticalLabelPosition=bottom;align=center;verticalAlign=top;fontSize=11;spacing=5;strokeOpacity=100;fillColor=#2e73b8;strokeWidth=1.2;" vertex="1" parent="1">
          <mxGeometry x="267" y="413" width="72" height="82" as="geometry" />
        </mxCell>
        <mxCell id="A3e4bDKovQ3FwY1yr9e8-7" value="Trigger AUDIT_BARRIO_HUB" style="html=1;whiteSpace=wrap;fontSize=11;spacing=0;strokeColor=#474747;fillOpacity=0;rounded=1;absoluteArcSize=1;arcSize=36;fillColor=#000000;strokeWidth=1.7999999999999998;verticalAlign=bottom;" vertex="1" parent="1">
          <mxGeometry x="60" y="204" width="192" height="144" as="geometry" />
        </mxCell>
        <mxCell id="A3e4bDKovQ3FwY1yr9e8-8" value="AUDITORIAHUB" style="html=1;whiteSpace=wrap;shape=mxgraph.aws3.table;labelPosition=center;verticalLabelPosition=bottom;align=center;verticalAlign=top;fontSize=11;spacing=5;strokeOpacity=100;fillColor=#2e73b8;strokeWidth=1.2;" vertex="1" parent="1">
          <mxGeometry x="120" y="210" width="72" height="81" as="geometry" />
        </mxCell>
        <mxCell id="A3e4bDKovQ3FwY1yr9e8-9" value="HUBDATOS migration workflow/job" style="html=1;whiteSpace=wrap;shape=mxgraph.aws3.database_migration_workflow_job;labelPosition=center;verticalLabelPosition=bottom;align=center;verticalAlign=top;fontSize=11;spacing=5;strokeOpacity=100;fillColor=#2e73b8;strokeWidth=1.2;" vertex="1" parent="1">
          <mxGeometry x="360" y="230" width="38" height="84" as="geometry" />
        </mxCell>
        <mxCell id="A3e4bDKovQ3FwY1yr9e8-10" value="HUB" style="html=1;whiteSpace=wrap;shape=mxgraph.aws3.generic_database;labelPosition=center;verticalLabelPosition=bottom;align=center;verticalAlign=top;fontSize=11;spacing=5;strokeOpacity=100;fillColor=#7D7C7C;strokeWidth=1.2;" vertex="1" parent="1">
          <mxGeometry x="205" y="600" width="70" height="84" as="geometry" />
        </mxCell>
        <mxCell id="A3e4bDKovQ3FwY1yr9e8-11" value="INNER" style="html=1;whiteSpace=wrap;shape=doubleArrow;arrowWidth=0.5;arrowSize=0.3;fontSize=11;fontColor=#000000;spacing=5;strokeOpacity=100;strokeWidth=1.2;" vertex="1" parent="1">
          <mxGeometry x="168" y="431" width="96" height="24" as="geometry" />
        </mxCell>
        <mxCell id="A3e4bDKovQ3FwY1yr9e8-12" value="" style="html=1;jettySize=18;fontSize=11;strokeWidth=1.2;rounded=1;arcSize=0;edgeStyle=orthogonalEdgeStyle;startArrow=none;endArrow=block;endFill=1;exitX=0.0007000000000000858;exitY=0.5;exitPerimeter=1;entryX=0.99467276318182;entryY=0.5;entryPerimeter=1;" edge="1" parent="1" source="A3e4bDKovQ3FwY1yr9e8-3" target="A3e4bDKovQ3FwY1yr9e8-4">
          <mxGeometry width="100" height="100" relative="1" as="geometry" />
        </mxCell>
        <mxCell id="A3e4bDKovQ3FwY1yr9e8-13" value="Petición" style="text;html=1;resizable=0;labelBackgroundColor=#ffffff;align=center;verticalAlign=middle;" vertex="1" parent="A3e4bDKovQ3FwY1yr9e8-12">
          <mxGeometry relative="1" as="geometry" />
        </mxCell>
        <mxCell id="A3e4bDKovQ3FwY1yr9e8-14" value="" style="html=1;jettySize=18;fontSize=11;strokeWidth=1.2;rounded=1;arcSize=0;edgeStyle=orthogonalEdgeStyle;startArrow=none;endArrow=block;endFill=1;exitX=0.5;exitY=0.8569916454016535;exitPerimeter=1;entryX=0.4899026784647219;entryY=-0.006818181818181754;entryPerimeter=1;" edge="1" parent="1" source="A3e4bDKovQ3FwY1yr9e8-9" target="A3e4bDKovQ3FwY1yr9e8-2">
          <mxGeometry width="100" height="100" relative="1" as="geometry">
            <Array as="points">
              <mxPoint x="379" y="380" />
              <mxPoint x="236" y="380" />
            </Array>
          </mxGeometry>
        </mxCell>
        <mxCell id="A3e4bDKovQ3FwY1yr9e8-15" value="HCAV SAPS Barrios (Origen)" style="text;html=1;resizable=0;labelBackgroundColor=#ffffff;align=center;verticalAlign=middle;" vertex="1" parent="A3e4bDKovQ3FwY1yr9e8-14">
          <mxGeometry x="0.5717847148153876" relative="1" as="geometry" />
        </mxCell>
        <mxCell id="A3e4bDKovQ3FwY1yr9e8-16" value="" style="html=1;jettySize=18;fontSize=11;strokeWidth=1.2;rounded=1;arcSize=0;edgeStyle=orthogonalEdgeStyle;startArrow=none;endArrow=block;endFill=1;exitX=0.5;exitY=1.0068181818181818;exitPerimeter=1;entryX=0.5;entryY=0.0000012184656859355009;entryPerimeter=1;" edge="1" parent="1" source="A3e4bDKovQ3FwY1yr9e8-2" target="A3e4bDKovQ3FwY1yr9e8-10">
          <mxGeometry width="100" height="100" relative="1" as="geometry" />
        </mxCell>
        <mxCell id="A3e4bDKovQ3FwY1yr9e8-17" value="Barrios SAPS-HUB (Destino)" style="text;html=1;resizable=0;labelBackgroundColor=#ffffff;align=center;verticalAlign=middle;" vertex="1" parent="A3e4bDKovQ3FwY1yr9e8-16">
          <mxGeometry relative="1" as="geometry" />
        </mxCell>
        <mxCell id="A3e4bDKovQ3FwY1yr9e8-18" value="" style="html=1;jettySize=18;fontSize=11;strokeWidth=1.2;rounded=1;arcSize=0;edgeStyle=orthogonalEdgeStyle;startArrow=none;endArrow=block;endFill=1;exitX=1.0046875;exitY=0.5;exitPerimeter=1;entryX=0.0009000000000000119;entryY=0.5535714285714286;entryPerimeter=1;" edge="1" parent="1" source="A3e4bDKovQ3FwY1yr9e8-7" target="A3e4bDKovQ3FwY1yr9e8-9">
          <mxGeometry width="100" height="100" relative="1" as="geometry" />
        </mxCell>
        <mxCell id="A3e4bDKovQ3FwY1yr9e8-19" value="" style="html=1;jettySize=18;fontSize=11;strokeWidth=1.2;rounded=1;arcSize=0;edgeStyle=orthogonalEdgeStyle;startArrow=none;endArrow=block;endFill=1;exitX=0.5;exitY=0.8573950436794867;exitPerimeter=1;entryX=0.5282814323557018;entryY=-0.00625;entryPerimeter=1;" edge="1" parent="1" source="A3e4bDKovQ3FwY1yr9e8-4" target="A3e4bDKovQ3FwY1yr9e8-7">
          <mxGeometry width="100" height="100" relative="1" as="geometry" />
        </mxCell>
      </root>
    </mxGraphModel>
  </diagram>
</mxfile>
